# Blender v2.79 (sub 0) OBJ File: 'CelticCross.blend'
# www.blender.org
mtllib Cross.mtl
o CelticCross
v 1.000000 0.000000 -1.000000
v 1.000000 0.000000 1.000000
v -1.000000 0.000000 1.000000
v -1.000000 0.000000 -1.000000
v 1.000000 0.300000 -0.999999
v 0.999999 0.300000 1.000001
v -1.000000 0.300000 1.000000
v -1.000000 0.300000 -1.000000
v 0.720000 0.300000 -0.720000
v 0.720000 0.300000 0.720001
v -0.720000 0.300000 0.720000
v -0.720000 0.300000 -0.720000
v 0.576000 1.300000 -0.576000
v 0.576000 1.300000 0.576001
v -0.576000 1.300000 0.576000
v -0.576000 1.300000 -0.576000
v 0.298598 1.500000 -0.298598
v 0.298598 1.500000 0.298599
v -0.298599 1.500000 0.298598
v -0.298598 1.500000 -0.298598
v 0.298598 3.500000 -0.298598
v 0.298598 3.500000 0.298599
v -0.298599 3.500000 0.298598
v -0.298598 3.500000 -0.298598
v 0.498599 3.700000 -0.298598
v 0.498598 3.700000 0.298599
v 1.398599 3.500000 -0.298598
v 1.398598 3.500000 0.298599
v 1.398599 4.500000 -0.298598
v 1.398598 4.500000 0.298599
v 0.498599 4.300000 -0.298598
v 0.498598 4.300000 0.298599
v -0.498614 3.700000 -0.298598
v -0.498614 3.700000 0.298599
v -1.398614 3.500000 -0.298598
v -1.398614 3.500000 0.298599
v -1.398614 4.500000 -0.298598
v -1.398614 4.500000 0.298599
v -0.498614 4.300000 -0.298598
v -0.498614 4.300000 0.298599
v -0.298614 4.500000 -0.298598
v -0.298614 4.500000 0.298599
v 0.298599 4.500000 -0.298598
v 0.298598 4.500000 0.298599
v -0.498614 5.399999 -0.298598
v -0.498614 5.399999 0.298599
v 0.498599 5.399999 -0.298598
v 0.498598 5.399999 0.298599
vt 0.253288 0.256414
vt 0.025462 0.256414
vt 0.025462 0.028588
vt 0.253288 0.028588
vt 0.450538 0.072703
vt 0.834462 0.072703
vt 0.780713 0.126452
vt 0.504287 0.126452
vt 0.834462 0.015114
vt 0.834462 0.072703
vt 0.450538 0.072703
vt 0.450538 0.015114
vt 0.834462 0.015114
vt 0.834462 0.072703
vt 0.450538 0.072703
vt 0.450538 0.015114
vt 0.834462 0.015114
vt 0.450538 0.015114
vt 0.450538 0.072703
vt 0.450538 0.015114
vt 0.834462 0.015114
vt 0.834462 0.072703
vt 0.753070 0.320395
vt 0.531929 0.320394
vt 0.780713 0.126452
vt 0.504287 0.126452
vt 0.780713 0.126452
vt 0.504287 0.126452
vt 0.780713 0.126452
vt 0.504287 0.126452
vt 0.699819 0.386042
vt 0.585180 0.386042
vt 0.753070 0.320395
vt 0.531930 0.320395
vt 0.753070 0.320394
vt 0.531930 0.320394
vt 0.753070 0.320395
vt 0.531930 0.320395
vt 0.989554 0.000038
vt 0.847538 0.000038
vt 0.847538 0.475648
vt 0.989555 0.475648
vt 0.699820 0.386042
vt 0.585181 0.386042
vt 0.699820 0.386042
vt 0.585181 0.386042
vt 0.699820 0.386042
vt 0.585181 0.386042
vt 0.435186 0.000085
vt 0.282085 0.000085
vt 0.282086 0.512820
vt 0.435188 0.512820
vt 0.282091 0.000085
vt 0.435190 0.000085
vt 0.435193 0.512813
vt 0.282092 0.512813
vt 0.847538 0.000038
vt 0.989556 0.000038
vt 0.989555 0.475653
vt 0.847538 0.475653
vt 0.989555 0.542915
vt 0.847538 0.542914
vt 0.989554 0.762159
vt 0.847539 0.762159
vt 0.989554 0.999962
vt 0.847538 0.999962
vt 0.976335 0.006253
vt 0.864015 0.006261
vt 0.864027 0.179661
vt 0.976347 0.179653
vt 0.847538 0.542911
vt 0.847538 0.762157
vt 0.989555 0.762157
vt 0.989555 0.542912
vt 0.847538 0.999962
vt 0.989555 0.999962
vt 0.976368 0.993817
vt 0.976368 0.820413
vt 0.864046 0.820414
vt 0.864045 0.993817
vt 0.976368 0.767215
vt 0.864045 0.767216
vt 0.864030 0.232857
vt 0.976351 0.232851
vt 0.864038 0.406257
vt 0.976359 0.406253
vt 0.976365 0.593811
vt 0.864043 0.593814
vt 0.282086 0.769186
vt 0.230814 0.999915
vt 0.486465 0.999915
vt 0.435191 0.769186
vt 0.230815 0.999915
vt 0.282090 0.769181
vt 0.435197 0.769181
vt 0.486472 0.999915
vt 0.717194 0.512820
vt 0.486465 0.564093
vt 0.486464 0.717913
vt 0.717194 0.769186
vt 0.000085 0.512820
vt 0.000085 0.769185
vt 0.230813 0.717912
vt 0.230813 0.564093
vt 0.230818 0.564086
vt 0.230817 0.717906
vt 0.000085 0.769178
vt 0.000087 0.512810
vt 0.486471 0.564087
vt 0.717202 0.512813
vt 0.717202 0.769181
vt 0.486471 0.717907
vn 0.0000 -1.0000 0.0000
vn 0.0000 1.0000 0.0000
vn 1.0000 0.0000 0.0000
vn -0.0000 -0.0000 1.0000
vn -1.0000 -0.0000 -0.0000
vn 0.0000 0.0000 -1.0000
vn -0.9898 0.1425 -0.0000
vn -0.5848 0.8112 -0.0000
vn -0.0000 0.1425 0.9898
vn 0.0000 0.1425 -0.9898
vn 0.9898 0.1425 0.0000
vn -0.0000 0.8112 0.5848
vn 0.0000 0.8112 -0.5848
vn 0.5848 0.8112 0.0000
vn 0.7071 -0.7071 0.0000
vn -0.2169 -0.9762 -0.0000
vn -0.2169 0.9762 -0.0000
vn 0.2169 -0.9762 -0.0000
vn 0.2169 0.9762 0.0000
vn -0.7071 -0.7071 0.0000
vn -0.7071 0.7071 0.0000
vn 0.7071 0.7071 0.0000
vn 0.9762 -0.2169 0.0000
vn -0.9762 -0.2169 0.0000
usemtl CelticCross
s off
f 1/1/1 2/2/1 3/3/1 4/4/1
f 8/5/2 7/6/2 11/7/2 12/8/2
f 1/9/3 5/10/3 6/11/3 2/12/3
f 2/13/4 6/14/4 7/15/4 3/16/4
f 3/17/5 7/6/5 8/5/5 4/18/5
f 5/19/6 1/20/6 4/21/6 8/22/6
f 12/8/7 11/7/7 15/23/7 16/24/7
f 7/15/2 6/14/2 10/25/2 11/26/2
f 5/19/2 8/22/2 12/27/2 9/28/2
f 6/11/2 5/10/2 9/29/2 10/30/2
f 16/24/8 15/23/8 19/31/8 20/32/8
f 11/26/9 10/25/9 14/33/9 15/34/9
f 9/28/10 12/27/10 16/35/10 13/36/10
f 10/30/11 9/29/11 13/37/11 14/38/11
f 20/39/5 19/40/5 23/41/5 24/42/5
f 15/34/12 14/33/12 18/43/12 19/44/12
f 13/36/13 16/35/13 20/45/13 17/46/13
f 14/38/14 13/37/14 17/47/14 18/48/14
f 19/49/4 18/50/4 22/51/4 23/52/4
f 17/53/6 20/54/6 24/55/6 21/56/6
f 18/57/3 17/58/3 21/59/3 22/60/3
f 22/60/15 21/59/15 25/61/15 26/62/15
f 26/62/16 25/61/16 27/63/16 28/64/16
f 28/64/3 27/63/3 29/65/3 30/66/3
f 30/67/17 29/68/17 31/69/17 32/70/17
f 34/71/18 36/72/18 35/73/18 33/74/18
f 36/72/5 38/75/5 37/76/5 35/73/5
f 38/77/19 40/78/19 39/79/19 37/80/19
f 24/42/20 23/41/20 34/71/20 33/74/20
f 40/78/21 42/81/21 41/82/21 39/79/21
f 32/70/22 31/69/22 43/83/22 44/84/22
f 44/84/23 43/83/23 47/85/23 48/86/23
f 42/81/24 46/87/24 45/88/24 41/82/24
f 46/87/2 48/86/2 47/85/2 45/88/2
f 44/89/4 48/90/4 46/91/4 42/92/4
f 47/93/6 43/94/6 41/95/6 45/96/6
f 36/97/4 34/98/4 40/99/4 38/100/4
f 28/101/4 30/102/4 32/103/4 26/104/4
f 40/99/4 32/103/4 44/89/4 42/92/4
f 23/52/4 22/51/4 26/104/4 34/98/4
f 40/99/4 34/98/4 26/104/4 32/103/4
f 25/105/6 31/106/6 29/107/6 27/108/6
f 33/109/6 35/110/6 37/111/6 39/112/6
f 24/55/6 33/109/6 25/105/6 21/56/6
f 41/95/6 43/94/6 31/106/6 39/112/6
f 31/106/6 25/105/6 33/109/6 39/112/6
